<mxfile host="app.diagrams.net" modified="2024-03-30T07:35:50.661Z" agent="Mozilla/5.0 (Windows NT 10.0; Win64; x64) AppleWebKit/537.36 (KHTML, like Gecko) Chrome/123.0.0.0 Safari/537.36" etag="sD7COBGUZrQLnRL0I2I5" version="24.2.1" type="github">
  <diagram name="wireframe admin" id="rL5e0oN_YTX8aWdYo2cD">
    <mxGraphModel dx="1500" dy="746" grid="1" gridSize="10" guides="1" tooltips="1" connect="1" arrows="1" fold="1" page="1" pageScale="1" pageWidth="850" pageHeight="1100" math="0" shadow="0">
      <root>
        <mxCell id="0" />
        <mxCell id="1" parent="0" />
        <mxCell id="1IiO7rAWY404VuCAk3OG-1" value="" style="whiteSpace=wrap;html=1;aspect=fixed;strokeColor=#000000;fillColor=#f5f5ff;" parent="1" vertex="1">
          <mxGeometry x="30" y="40" width="710" height="710" as="geometry" />
        </mxCell>
        <mxCell id="1IiO7rAWY404VuCAk3OG-2" value="" style="rounded=0;whiteSpace=wrap;html=1;" parent="1" vertex="1">
          <mxGeometry x="30" y="40" width="710" height="70" as="geometry" />
        </mxCell>
        <mxCell id="1IiO7rAWY404VuCAk3OG-3" value="" style="rounded=0;whiteSpace=wrap;html=1;" parent="1" vertex="1">
          <mxGeometry x="30" y="110" width="160" height="640" as="geometry" />
        </mxCell>
        <mxCell id="1IiO7rAWY404VuCAk3OG-4" value="" style="rounded=0;whiteSpace=wrap;html=1;" parent="1" vertex="1">
          <mxGeometry x="30" y="110" width="160" height="60" as="geometry" />
        </mxCell>
        <mxCell id="1IiO7rAWY404VuCAk3OG-5" value="" style="shape=actor;whiteSpace=wrap;html=1;" parent="1" vertex="1">
          <mxGeometry x="685" y="70" width="20" height="15" as="geometry" />
        </mxCell>
        <mxCell id="1IiO7rAWY404VuCAk3OG-6" value="" style="html=1;verticalLabelPosition=bottom;align=center;labelBackgroundColor=#ffffff;verticalAlign=top;strokeWidth=2;strokeColor=#000000;shadow=0;dashed=0;shape=mxgraph.ios7.icons.bell;" parent="1" vertex="1">
          <mxGeometry x="620" y="72.5" width="20" height="10" as="geometry" />
        </mxCell>
        <mxCell id="1IiO7rAWY404VuCAk3OG-7" value="" style="sketch=0;pointerEvents=1;shadow=0;dashed=0;html=1;strokeColor=none;fillColor=#505050;labelPosition=center;verticalLabelPosition=bottom;verticalAlign=top;outlineConnect=0;align=center;shape=mxgraph.office.concepts.home;" parent="1" vertex="1">
          <mxGeometry x="200" y="160" width="20" height="20" as="geometry" />
        </mxCell>
        <mxCell id="1IiO7rAWY404VuCAk3OG-8" value="&lt;b&gt;Home&lt;/b&gt;" style="text;html=1;align=center;verticalAlign=middle;whiteSpace=wrap;rounded=0;" parent="1" vertex="1">
          <mxGeometry x="190" y="125" width="60" height="30" as="geometry" />
        </mxCell>
        <mxCell id="1IiO7rAWY404VuCAk3OG-9" value="&lt;b style=&quot;font-size: 11px;&quot;&gt;Home&lt;/b&gt;" style="text;html=1;align=center;verticalAlign=middle;whiteSpace=wrap;rounded=0;" parent="1" vertex="1">
          <mxGeometry x="230" y="155" width="60" height="30" as="geometry" />
        </mxCell>
        <mxCell id="1IiO7rAWY404VuCAk3OG-10" value="" style="sketch=0;pointerEvents=1;shadow=0;dashed=0;html=1;strokeColor=none;fillColor=#505050;labelPosition=center;verticalLabelPosition=bottom;verticalAlign=top;outlineConnect=0;align=center;shape=mxgraph.office.concepts.home;" parent="1" vertex="1">
          <mxGeometry x="40" y="125" width="30" height="30" as="geometry" />
        </mxCell>
        <mxCell id="1IiO7rAWY404VuCAk3OG-11" value="Admin Page" style="text;html=1;align=center;verticalAlign=middle;whiteSpace=wrap;rounded=0;" parent="1" vertex="1">
          <mxGeometry x="70" y="125" width="90" height="30" as="geometry" />
        </mxCell>
        <mxCell id="1IiO7rAWY404VuCAk3OG-12" value="" style="shape=image;verticalLabelPosition=bottom;labelBackgroundColor=default;verticalAlign=top;aspect=fixed;imageAspect=0;image=https://images.rawpixel.com/image_png_social_square/czNmcy1wcml2YXRlL3Jhd3BpeGVsX2ltYWdlcy93ZWJzaXRlX2NvbnRlbnQvbHIvdjk5My00MC5wbmc.png;" parent="1" vertex="1">
          <mxGeometry x="37.5" y="220" width="20" height="20" as="geometry" />
        </mxCell>
        <mxCell id="1IiO7rAWY404VuCAk3OG-13" value="Dash board" style="text;html=1;align=center;verticalAlign=middle;whiteSpace=wrap;rounded=0;" parent="1" vertex="1">
          <mxGeometry x="60" y="215" width="90" height="30" as="geometry" />
        </mxCell>
        <mxCell id="1IiO7rAWY404VuCAk3OG-14" value="" style="shape=internalStorage;whiteSpace=wrap;html=1;backgroundOutline=1;dx=10;dy=20;" parent="1" vertex="1">
          <mxGeometry x="35" y="260" width="25" height="20" as="geometry" />
        </mxCell>
        <mxCell id="1IiO7rAWY404VuCAk3OG-15" value="System management" style="text;html=1;align=center;verticalAlign=middle;whiteSpace=wrap;rounded=0;" parent="1" vertex="1">
          <mxGeometry x="45" y="257.5" width="150" height="25" as="geometry" />
        </mxCell>
        <mxCell id="1IiO7rAWY404VuCAk3OG-16" value="" style="rounded=0;whiteSpace=wrap;html=1;" parent="1" vertex="1">
          <mxGeometry x="210" y="220" width="150" height="260" as="geometry" />
        </mxCell>
        <mxCell id="1IiO7rAWY404VuCAk3OG-17" value="Photo" style="html=1;whiteSpace=wrap;strokeColor=none;fillColor=#0f0f10;labelPosition=center;verticalLabelPosition=middle;verticalAlign=top;align=center;fontSize=12;outlineConnect=0;spacingTop=-6;fontColor=#FFFFFF;sketch=0;shape=mxgraph.sitemap.photo;" parent="1" vertex="1">
          <mxGeometry x="225" y="230" width="120" height="140" as="geometry" />
        </mxCell>
        <mxCell id="1IiO7rAWY404VuCAk3OG-18" value="Best idea article&amp;nbsp;" style="text;html=1;align=center;verticalAlign=middle;whiteSpace=wrap;rounded=0;" parent="1" vertex="1">
          <mxGeometry x="227.5" y="400" width="115" height="30" as="geometry" />
        </mxCell>
        <mxCell id="1IiO7rAWY404VuCAk3OG-19" value="" style="rounded=0;whiteSpace=wrap;html=1;" parent="1" vertex="1">
          <mxGeometry x="390" y="220" width="150" height="260" as="geometry" />
        </mxCell>
        <mxCell id="1IiO7rAWY404VuCAk3OG-20" value="Photo" style="html=1;whiteSpace=wrap;strokeColor=none;fillColor=#0f0f10;labelPosition=center;verticalLabelPosition=middle;verticalAlign=top;align=center;fontSize=12;outlineConnect=0;spacingTop=-6;fontColor=#FFFFFF;sketch=0;shape=mxgraph.sitemap.photo;" parent="1" vertex="1">
          <mxGeometry x="405" y="230" width="120" height="140" as="geometry" />
        </mxCell>
        <mxCell id="1IiO7rAWY404VuCAk3OG-21" value="Best student" style="text;html=1;align=center;verticalAlign=middle;whiteSpace=wrap;rounded=0;" parent="1" vertex="1">
          <mxGeometry x="417.5" y="400" width="95" height="30" as="geometry" />
        </mxCell>
        <mxCell id="1IiO7rAWY404VuCAk3OG-22" value="" style="rounded=0;whiteSpace=wrap;html=1;" parent="1" vertex="1">
          <mxGeometry x="560" y="220" width="150" height="260" as="geometry" />
        </mxCell>
        <mxCell id="1IiO7rAWY404VuCAk3OG-23" value="Photo" style="html=1;whiteSpace=wrap;strokeColor=none;fillColor=#0f0f10;labelPosition=center;verticalLabelPosition=middle;verticalAlign=top;align=center;fontSize=12;outlineConnect=0;spacingTop=-6;fontColor=#FFFFFF;sketch=0;shape=mxgraph.sitemap.photo;" parent="1" vertex="1">
          <mxGeometry x="575" y="230" width="120" height="140" as="geometry" />
        </mxCell>
        <mxCell id="1IiO7rAWY404VuCAk3OG-24" value="Best Coordinator" style="text;html=1;align=center;verticalAlign=middle;whiteSpace=wrap;rounded=0;" parent="1" vertex="1">
          <mxGeometry x="585" y="400" width="100" height="30" as="geometry" />
        </mxCell>
        <mxCell id="1IiO7rAWY404VuCAk3OG-25" value="&lt;i&gt;Navigation&lt;/i&gt;" style="text;html=1;align=center;verticalAlign=middle;whiteSpace=wrap;rounded=0;" parent="1" vertex="1">
          <mxGeometry x="45" y="180" width="60" height="30" as="geometry" />
        </mxCell>
        <mxCell id="1IiO7rAWY404VuCAk3OG-26" value="Admin home" style="text;html=1;align=center;verticalAlign=middle;whiteSpace=wrap;rounded=0;" parent="1" vertex="1">
          <mxGeometry x="45" y="60" width="105" height="30" as="geometry" />
        </mxCell>
        <mxCell id="1IiO7rAWY404VuCAk3OG-27" value="" style="whiteSpace=wrap;html=1;aspect=fixed;strokeColor=#000000;fillColor=#f5f5ff;" parent="1" vertex="1">
          <mxGeometry x="35" y="810" width="710" height="710" as="geometry" />
        </mxCell>
        <mxCell id="1IiO7rAWY404VuCAk3OG-28" value="" style="rounded=0;whiteSpace=wrap;html=1;" parent="1" vertex="1">
          <mxGeometry x="35" y="810" width="710" height="70" as="geometry" />
        </mxCell>
        <mxCell id="1IiO7rAWY404VuCAk3OG-29" value="" style="rounded=0;whiteSpace=wrap;html=1;" parent="1" vertex="1">
          <mxGeometry x="35" y="880" width="160" height="640" as="geometry" />
        </mxCell>
        <mxCell id="1IiO7rAWY404VuCAk3OG-30" value="" style="rounded=0;whiteSpace=wrap;html=1;" parent="1" vertex="1">
          <mxGeometry x="35" y="880" width="160" height="60" as="geometry" />
        </mxCell>
        <mxCell id="1IiO7rAWY404VuCAk3OG-31" value="" style="shape=actor;whiteSpace=wrap;html=1;" parent="1" vertex="1">
          <mxGeometry x="690" y="840" width="20" height="15" as="geometry" />
        </mxCell>
        <mxCell id="1IiO7rAWY404VuCAk3OG-32" value="" style="html=1;verticalLabelPosition=bottom;align=center;labelBackgroundColor=#ffffff;verticalAlign=top;strokeWidth=2;strokeColor=#000000;shadow=0;dashed=0;shape=mxgraph.ios7.icons.bell;" parent="1" vertex="1">
          <mxGeometry x="625" y="842.5" width="20" height="10" as="geometry" />
        </mxCell>
        <mxCell id="1IiO7rAWY404VuCAk3OG-33" value="" style="sketch=0;pointerEvents=1;shadow=0;dashed=0;html=1;strokeColor=none;fillColor=#505050;labelPosition=center;verticalLabelPosition=bottom;verticalAlign=top;outlineConnect=0;align=center;shape=mxgraph.office.concepts.home;" parent="1" vertex="1">
          <mxGeometry x="205" y="930" width="20" height="20" as="geometry" />
        </mxCell>
        <mxCell id="1IiO7rAWY404VuCAk3OG-34" value="&lt;b&gt;Dashboard&lt;/b&gt;" style="text;html=1;align=center;verticalAlign=middle;whiteSpace=wrap;rounded=0;" parent="1" vertex="1">
          <mxGeometry x="205" y="895" width="60" height="30" as="geometry" />
        </mxCell>
        <mxCell id="1IiO7rAWY404VuCAk3OG-35" value="&lt;b style=&quot;font-size: 11px;&quot;&gt;Dashboard&lt;/b&gt;" style="text;html=1;align=center;verticalAlign=middle;whiteSpace=wrap;rounded=0;" parent="1" vertex="1">
          <mxGeometry x="235" y="925" width="60" height="30" as="geometry" />
        </mxCell>
        <mxCell id="1IiO7rAWY404VuCAk3OG-36" value="" style="sketch=0;pointerEvents=1;shadow=0;dashed=0;html=1;strokeColor=none;fillColor=#505050;labelPosition=center;verticalLabelPosition=bottom;verticalAlign=top;outlineConnect=0;align=center;shape=mxgraph.office.concepts.home;" parent="1" vertex="1">
          <mxGeometry x="45" y="895" width="30" height="30" as="geometry" />
        </mxCell>
        <mxCell id="1IiO7rAWY404VuCAk3OG-37" value="Admin Page" style="text;html=1;align=center;verticalAlign=middle;whiteSpace=wrap;rounded=0;" parent="1" vertex="1">
          <mxGeometry x="75" y="895" width="90" height="30" as="geometry" />
        </mxCell>
        <mxCell id="1IiO7rAWY404VuCAk3OG-38" value="" style="shape=image;verticalLabelPosition=bottom;labelBackgroundColor=default;verticalAlign=top;aspect=fixed;imageAspect=0;image=https://images.rawpixel.com/image_png_social_square/czNmcy1wcml2YXRlL3Jhd3BpeGVsX2ltYWdlcy93ZWJzaXRlX2NvbnRlbnQvbHIvdjk5My00MC5wbmc.png;" parent="1" vertex="1">
          <mxGeometry x="42.5" y="990" width="20" height="20" as="geometry" />
        </mxCell>
        <mxCell id="1IiO7rAWY404VuCAk3OG-39" value="Dash board" style="text;html=1;align=center;verticalAlign=middle;whiteSpace=wrap;rounded=0;" parent="1" vertex="1">
          <mxGeometry x="65" y="985" width="90" height="30" as="geometry" />
        </mxCell>
        <mxCell id="1IiO7rAWY404VuCAk3OG-40" value="" style="shape=internalStorage;whiteSpace=wrap;html=1;backgroundOutline=1;dx=10;dy=20;" parent="1" vertex="1">
          <mxGeometry x="40" y="1030" width="25" height="20" as="geometry" />
        </mxCell>
        <mxCell id="1IiO7rAWY404VuCAk3OG-41" value="System management" style="text;html=1;align=center;verticalAlign=middle;whiteSpace=wrap;rounded=0;" parent="1" vertex="1">
          <mxGeometry x="50" y="1027.5" width="150" height="25" as="geometry" />
        </mxCell>
        <mxCell id="1IiO7rAWY404VuCAk3OG-42" value="&lt;i&gt;Navigation&lt;/i&gt;" style="text;html=1;align=center;verticalAlign=middle;whiteSpace=wrap;rounded=0;" parent="1" vertex="1">
          <mxGeometry x="50" y="950" width="60" height="30" as="geometry" />
        </mxCell>
        <mxCell id="1IiO7rAWY404VuCAk3OG-43" value="Admin dashboard" style="text;html=1;align=center;verticalAlign=middle;whiteSpace=wrap;rounded=0;" parent="1" vertex="1">
          <mxGeometry x="50" y="830" width="105" height="30" as="geometry" />
        </mxCell>
        <mxCell id="1IiO7rAWY404VuCAk3OG-44" value="" style="rounded=0;whiteSpace=wrap;html=1;" parent="1" vertex="1">
          <mxGeometry x="212.5" y="1015" width="212.5" height="110" as="geometry" />
        </mxCell>
        <mxCell id="1IiO7rAWY404VuCAk3OG-45" value="" style="endArrow=none;html=1;rounded=0;exitX=0;exitY=0.5;exitDx=0;exitDy=0;entryX=1;entryY=0.5;entryDx=0;entryDy=0;" parent="1" source="1IiO7rAWY404VuCAk3OG-44" target="1IiO7rAWY404VuCAk3OG-44" edge="1">
          <mxGeometry width="50" height="50" relative="1" as="geometry">
            <mxPoint x="315" y="1120" as="sourcePoint" />
            <mxPoint x="295" y="1080" as="targetPoint" />
          </mxGeometry>
        </mxCell>
        <mxCell id="1IiO7rAWY404VuCAk3OG-46" value="" style="endArrow=none;html=1;rounded=0;exitX=0.5;exitY=1;exitDx=0;exitDy=0;" parent="1" source="1IiO7rAWY404VuCAk3OG-44" edge="1">
          <mxGeometry width="50" height="50" relative="1" as="geometry">
            <mxPoint x="315" y="1120" as="sourcePoint" />
            <mxPoint x="319" y="1070" as="targetPoint" />
          </mxGeometry>
        </mxCell>
        <mxCell id="1IiO7rAWY404VuCAk3OG-47" value="" style="shape=image;html=1;verticalAlign=top;verticalLabelPosition=bottom;labelBackgroundColor=#ffffff;imageAspect=0;aspect=fixed;image=https://cdn0.iconfinder.com/data/icons/evericons-24px-vol-1/24/eye-128.png" parent="1" vertex="1">
          <mxGeometry x="220" y="1032.5" width="20" height="20" as="geometry" />
        </mxCell>
        <mxCell id="1IiO7rAWY404VuCAk3OG-48" value="number of course" style="text;html=1;align=center;verticalAlign=middle;whiteSpace=wrap;rounded=0;" parent="1" vertex="1">
          <mxGeometry x="355" y="1085" width="60" height="30" as="geometry" />
        </mxCell>
        <mxCell id="1IiO7rAWY404VuCAk3OG-49" value="number of students" style="text;html=1;align=center;verticalAlign=middle;whiteSpace=wrap;rounded=0;" parent="1" vertex="1">
          <mxGeometry x="268.75" y="1027.5" width="106.25" height="30" as="geometry" />
        </mxCell>
        <mxCell id="1IiO7rAWY404VuCAk3OG-50" value="" style="shape=image;html=1;verticalAlign=top;verticalLabelPosition=bottom;labelBackgroundColor=#ffffff;imageAspect=0;aspect=fixed;image=https://cdn4.iconfinder.com/data/icons/48-bubbles/48/12.File-128.png" parent="1" vertex="1">
          <mxGeometry x="220" y="1090" width="20" height="20" as="geometry" />
        </mxCell>
        <mxCell id="1IiO7rAWY404VuCAk3OG-51" value="number of post" style="text;html=1;align=center;verticalAlign=middle;whiteSpace=wrap;rounded=0;" parent="1" vertex="1">
          <mxGeometry x="240" y="1085" width="50" height="30" as="geometry" />
        </mxCell>
        <mxCell id="1IiO7rAWY404VuCAk3OG-52" value="" style="shape=message;html=1;html=1;outlineConnect=0;labelPosition=center;verticalLabelPosition=bottom;align=center;verticalAlign=top;" parent="1" vertex="1">
          <mxGeometry x="327.5" y="1095" width="20" height="10" as="geometry" />
        </mxCell>
        <mxCell id="1IiO7rAWY404VuCAk3OG-53" value="" style="rounded=0;whiteSpace=wrap;html=1;" parent="1" vertex="1">
          <mxGeometry x="482.5" y="1015" width="212.5" height="110" as="geometry" />
        </mxCell>
        <mxCell id="1IiO7rAWY404VuCAk3OG-54" value="" style="endArrow=none;html=1;rounded=0;exitX=0;exitY=0.5;exitDx=0;exitDy=0;entryX=1;entryY=0.5;entryDx=0;entryDy=0;" parent="1" source="1IiO7rAWY404VuCAk3OG-53" target="1IiO7rAWY404VuCAk3OG-53" edge="1">
          <mxGeometry width="50" height="50" relative="1" as="geometry">
            <mxPoint x="585" y="1120" as="sourcePoint" />
            <mxPoint x="565" y="1080" as="targetPoint" />
          </mxGeometry>
        </mxCell>
        <mxCell id="1IiO7rAWY404VuCAk3OG-55" value="" style="endArrow=none;html=1;rounded=0;exitX=0.5;exitY=1;exitDx=0;exitDy=0;" parent="1" source="1IiO7rAWY404VuCAk3OG-53" edge="1">
          <mxGeometry width="50" height="50" relative="1" as="geometry">
            <mxPoint x="585" y="1120" as="sourcePoint" />
            <mxPoint x="589" y="1070" as="targetPoint" />
          </mxGeometry>
        </mxCell>
        <mxCell id="1IiO7rAWY404VuCAk3OG-56" value="" style="shape=image;html=1;verticalAlign=top;verticalLabelPosition=bottom;labelBackgroundColor=#ffffff;imageAspect=0;aspect=fixed;image=https://cdn0.iconfinder.com/data/icons/evericons-24px-vol-1/24/eye-128.png" parent="1" vertex="1">
          <mxGeometry x="490" y="1032.5" width="20" height="20" as="geometry" />
        </mxCell>
        <mxCell id="1IiO7rAWY404VuCAk3OG-57" value="number of missing comment" style="text;html=1;align=center;verticalAlign=middle;whiteSpace=wrap;rounded=0;" parent="1" vertex="1">
          <mxGeometry x="625" y="1085" width="60" height="30" as="geometry" />
        </mxCell>
        <mxCell id="1IiO7rAWY404VuCAk3OG-58" value="number of coordinator" style="text;html=1;align=center;verticalAlign=middle;whiteSpace=wrap;rounded=0;" parent="1" vertex="1">
          <mxGeometry x="538.75" y="1027.5" width="126.25" height="30" as="geometry" />
        </mxCell>
        <mxCell id="1IiO7rAWY404VuCAk3OG-59" value="" style="shape=image;html=1;verticalAlign=top;verticalLabelPosition=bottom;labelBackgroundColor=#ffffff;imageAspect=0;aspect=fixed;image=https://cdn4.iconfinder.com/data/icons/48-bubbles/48/12.File-128.png" parent="1" vertex="1">
          <mxGeometry x="490" y="1090" width="20" height="20" as="geometry" />
        </mxCell>
        <mxCell id="1IiO7rAWY404VuCAk3OG-60" value="number of comment" style="text;html=1;align=center;verticalAlign=middle;whiteSpace=wrap;rounded=0;" parent="1" vertex="1">
          <mxGeometry x="510" y="1085" width="65" height="30" as="geometry" />
        </mxCell>
        <mxCell id="1IiO7rAWY404VuCAk3OG-61" value="" style="shape=message;html=1;html=1;outlineConnect=0;labelPosition=center;verticalLabelPosition=bottom;align=center;verticalAlign=top;" parent="1" vertex="1">
          <mxGeometry x="597.5" y="1095" width="20" height="10" as="geometry" />
        </mxCell>
        <mxCell id="1IiO7rAWY404VuCAk3OG-62" value="" style="rounded=0;whiteSpace=wrap;html=1;" parent="1" vertex="1">
          <mxGeometry x="357.5" y="1192.5" width="212.5" height="50" as="geometry" />
        </mxCell>
        <mxCell id="1IiO7rAWY404VuCAk3OG-63" value="" style="shape=image;html=1;verticalAlign=top;verticalLabelPosition=bottom;labelBackgroundColor=#ffffff;imageAspect=0;aspect=fixed;image=https://cdn0.iconfinder.com/data/icons/evericons-24px-vol-1/24/eye-128.png" parent="1" vertex="1">
          <mxGeometry x="370" y="1207.5" width="20" height="20" as="geometry" />
        </mxCell>
        <mxCell id="1IiO7rAWY404VuCAk3OG-64" value="number of marketing manager" style="text;html=1;align=center;verticalAlign=middle;whiteSpace=wrap;rounded=0;" parent="1" vertex="1">
          <mxGeometry x="415" y="1202.5" width="106.25" height="30" as="geometry" />
        </mxCell>
        <mxCell id="1IiO7rAWY404VuCAk3OG-65" value="Create new student" style="rounded=0;whiteSpace=wrap;html=1;" parent="1" vertex="1">
          <mxGeometry x="212.5" y="1125" width="212.5" height="30" as="geometry" />
        </mxCell>
        <mxCell id="1IiO7rAWY404VuCAk3OG-66" value="" style="shape=actor;whiteSpace=wrap;html=1;" parent="1" vertex="1">
          <mxGeometry x="220" y="1132.5" width="20" height="15" as="geometry" />
        </mxCell>
        <mxCell id="1IiO7rAWY404VuCAk3OG-67" value="Create new coordinator" style="rounded=0;whiteSpace=wrap;html=1;" parent="1" vertex="1">
          <mxGeometry x="482.5" y="1125" width="212.5" height="30" as="geometry" />
        </mxCell>
        <mxCell id="1IiO7rAWY404VuCAk3OG-68" value="" style="shape=actor;whiteSpace=wrap;html=1;" parent="1" vertex="1">
          <mxGeometry x="490" y="1132.5" width="20" height="15" as="geometry" />
        </mxCell>
        <mxCell id="1IiO7rAWY404VuCAk3OG-69" value="Create new manager" style="rounded=0;whiteSpace=wrap;html=1;" parent="1" vertex="1">
          <mxGeometry x="357.5" y="1242.5" width="212.5" height="27.5" as="geometry" />
        </mxCell>
        <mxCell id="1IiO7rAWY404VuCAk3OG-70" value="" style="shape=actor;whiteSpace=wrap;html=1;" parent="1" vertex="1">
          <mxGeometry x="370" y="1248.75" width="20" height="15" as="geometry" />
        </mxCell>
        <mxCell id="1IiO7rAWY404VuCAk3OG-71" value="" style="whiteSpace=wrap;html=1;aspect=fixed;strokeColor=#000000;fillColor=#f5f5ff;" parent="1" vertex="1">
          <mxGeometry x="37.5" y="1600" width="710" height="710" as="geometry" />
        </mxCell>
        <mxCell id="1IiO7rAWY404VuCAk3OG-72" value="" style="rounded=0;whiteSpace=wrap;html=1;" parent="1" vertex="1">
          <mxGeometry x="37.5" y="1600" width="710" height="70" as="geometry" />
        </mxCell>
        <mxCell id="1IiO7rAWY404VuCAk3OG-73" value="" style="rounded=0;whiteSpace=wrap;html=1;" parent="1" vertex="1">
          <mxGeometry x="37.5" y="1670" width="160" height="640" as="geometry" />
        </mxCell>
        <mxCell id="1IiO7rAWY404VuCAk3OG-74" value="" style="rounded=0;whiteSpace=wrap;html=1;" parent="1" vertex="1">
          <mxGeometry x="37.5" y="1670" width="160" height="60" as="geometry" />
        </mxCell>
        <mxCell id="1IiO7rAWY404VuCAk3OG-75" value="" style="shape=actor;whiteSpace=wrap;html=1;" parent="1" vertex="1">
          <mxGeometry x="692.5" y="1630" width="20" height="15" as="geometry" />
        </mxCell>
        <mxCell id="1IiO7rAWY404VuCAk3OG-76" value="" style="html=1;verticalLabelPosition=bottom;align=center;labelBackgroundColor=#ffffff;verticalAlign=top;strokeWidth=2;strokeColor=#000000;shadow=0;dashed=0;shape=mxgraph.ios7.icons.bell;" parent="1" vertex="1">
          <mxGeometry x="627.5" y="1632.5" width="20" height="10" as="geometry" />
        </mxCell>
        <mxCell id="1IiO7rAWY404VuCAk3OG-77" value="" style="sketch=0;pointerEvents=1;shadow=0;dashed=0;html=1;strokeColor=none;fillColor=#505050;labelPosition=center;verticalLabelPosition=bottom;verticalAlign=top;outlineConnect=0;align=center;shape=mxgraph.office.concepts.home;" parent="1" vertex="1">
          <mxGeometry x="207.5" y="1720" width="20" height="20" as="geometry" />
        </mxCell>
        <mxCell id="1IiO7rAWY404VuCAk3OG-78" value="&lt;b&gt;List Accounts&lt;/b&gt;" style="text;html=1;align=center;verticalAlign=middle;whiteSpace=wrap;rounded=0;" parent="1" vertex="1">
          <mxGeometry x="207.5" y="1685" width="85" height="30" as="geometry" />
        </mxCell>
        <mxCell id="1IiO7rAWY404VuCAk3OG-79" value="&lt;b style=&quot;font-size: 11px;&quot;&gt;List Accounts&lt;/b&gt;" style="text;html=1;align=center;verticalAlign=middle;whiteSpace=wrap;rounded=0;" parent="1" vertex="1">
          <mxGeometry x="237.5" y="1715" width="95" height="30" as="geometry" />
        </mxCell>
        <mxCell id="1IiO7rAWY404VuCAk3OG-80" value="" style="sketch=0;pointerEvents=1;shadow=0;dashed=0;html=1;strokeColor=none;fillColor=#505050;labelPosition=center;verticalLabelPosition=bottom;verticalAlign=top;outlineConnect=0;align=center;shape=mxgraph.office.concepts.home;" parent="1" vertex="1">
          <mxGeometry x="47.5" y="1685" width="30" height="30" as="geometry" />
        </mxCell>
        <mxCell id="1IiO7rAWY404VuCAk3OG-81" value="Admin Page" style="text;html=1;align=center;verticalAlign=middle;whiteSpace=wrap;rounded=0;" parent="1" vertex="1">
          <mxGeometry x="77.5" y="1685" width="90" height="30" as="geometry" />
        </mxCell>
        <mxCell id="1IiO7rAWY404VuCAk3OG-82" value="" style="shape=image;verticalLabelPosition=bottom;labelBackgroundColor=default;verticalAlign=top;aspect=fixed;imageAspect=0;image=https://images.rawpixel.com/image_png_social_square/czNmcy1wcml2YXRlL3Jhd3BpeGVsX2ltYWdlcy93ZWJzaXRlX2NvbnRlbnQvbHIvdjk5My00MC5wbmc.png;" parent="1" vertex="1">
          <mxGeometry x="45" y="1780" width="20" height="20" as="geometry" />
        </mxCell>
        <mxCell id="1IiO7rAWY404VuCAk3OG-83" value="Dash board" style="text;html=1;align=center;verticalAlign=middle;whiteSpace=wrap;rounded=0;" parent="1" vertex="1">
          <mxGeometry x="67.5" y="1775" width="90" height="30" as="geometry" />
        </mxCell>
        <mxCell id="1IiO7rAWY404VuCAk3OG-84" value="" style="shape=internalStorage;whiteSpace=wrap;html=1;backgroundOutline=1;dx=10;dy=20;" parent="1" vertex="1">
          <mxGeometry x="42.5" y="1820" width="25" height="20" as="geometry" />
        </mxCell>
        <mxCell id="1IiO7rAWY404VuCAk3OG-85" value="System management" style="text;html=1;align=center;verticalAlign=middle;whiteSpace=wrap;rounded=0;" parent="1" vertex="1">
          <mxGeometry x="52.5" y="1817.5" width="150" height="25" as="geometry" />
        </mxCell>
        <mxCell id="1IiO7rAWY404VuCAk3OG-86" value="&lt;i&gt;Navigation&lt;/i&gt;" style="text;html=1;align=center;verticalAlign=middle;whiteSpace=wrap;rounded=0;" parent="1" vertex="1">
          <mxGeometry x="52.5" y="1740" width="60" height="30" as="geometry" />
        </mxCell>
        <mxCell id="1IiO7rAWY404VuCAk3OG-87" value="Admin account management" style="text;html=1;align=center;verticalAlign=middle;whiteSpace=wrap;rounded=0;" parent="1" vertex="1">
          <mxGeometry x="52.5" y="1620" width="160" height="30" as="geometry" />
        </mxCell>
        <mxCell id="1IiO7rAWY404VuCAk3OG-88" value="" style="triangle;whiteSpace=wrap;html=1;" parent="1" vertex="1">
          <mxGeometry x="60" y="1870" width="10" height="10" as="geometry" />
        </mxCell>
        <mxCell id="1IiO7rAWY404VuCAk3OG-89" value="Account" style="text;html=1;align=left;verticalAlign=middle;whiteSpace=wrap;rounded=0;" parent="1" vertex="1">
          <mxGeometry x="77.5" y="1860" width="60" height="30" as="geometry" />
        </mxCell>
        <mxCell id="1IiO7rAWY404VuCAk3OG-90" value="" style="triangle;whiteSpace=wrap;html=1;" parent="1" vertex="1">
          <mxGeometry x="60" y="1905" width="10" height="10" as="geometry" />
        </mxCell>
        <mxCell id="1IiO7rAWY404VuCAk3OG-91" value="Event" style="text;html=1;align=left;verticalAlign=middle;whiteSpace=wrap;rounded=0;" parent="1" vertex="1">
          <mxGeometry x="77.5" y="1895" width="60" height="30" as="geometry" />
        </mxCell>
        <mxCell id="1IiO7rAWY404VuCAk3OG-92" value="Manager Account" style="swimlane;whiteSpace=wrap;html=1;align=left;startSize=70;" parent="1" vertex="1">
          <mxGeometry x="215" y="1770" width="510" height="490" as="geometry">
            <mxRectangle x="502.5" y="2060" width="130" height="70" as="alternateBounds" />
          </mxGeometry>
        </mxCell>
        <mxCell id="1IiO7rAWY404VuCAk3OG-93" value="Add account" style="rounded=0;whiteSpace=wrap;html=1;align=center;" parent="1IiO7rAWY404VuCAk3OG-92" vertex="1">
          <mxGeometry x="367.5" y="22.5" width="132.5" height="35" as="geometry" />
        </mxCell>
        <mxCell id="1IiO7rAWY404VuCAk3OG-94" value="" style="html=1;verticalLabelPosition=bottom;align=center;labelBackgroundColor=#ffffff;verticalAlign=top;strokeWidth=2;strokeColor=#000000;shadow=0;dashed=0;shape=mxgraph.ios7.icons.add;" parent="1IiO7rAWY404VuCAk3OG-92" vertex="1">
          <mxGeometry x="377.5" y="30" width="17.5" height="20" as="geometry" />
        </mxCell>
        <mxCell id="1IiO7rAWY404VuCAk3OG-95" value="#&amp;nbsp; &amp;nbsp; &amp;nbsp; &amp;nbsp; &amp;nbsp; &amp;nbsp; &amp;nbsp; &amp;nbsp; &amp;nbsp; NAME&amp;nbsp; &amp;nbsp; &amp;nbsp; &amp;nbsp; &amp;nbsp; &amp;nbsp; &amp;nbsp; &amp;nbsp;PHOTO&amp;nbsp; &amp;nbsp; &amp;nbsp; &amp;nbsp; &amp;nbsp; &amp;nbsp; &amp;nbsp; &amp;nbsp; &amp;nbsp;GMAIL&amp;nbsp; &amp;nbsp; &amp;nbsp; &amp;nbsp; &amp;nbsp; &amp;nbsp; &amp;nbsp; &amp;nbsp; &amp;nbsp; &amp;nbsp; ROLE&amp;nbsp; &amp;nbsp; &amp;nbsp; &amp;nbsp; &amp;nbsp; &amp;nbsp; &amp;nbsp; &amp;nbsp; ACTION" style="rounded=0;whiteSpace=wrap;html=1;align=left;" parent="1IiO7rAWY404VuCAk3OG-92" vertex="1">
          <mxGeometry y="70" width="510" height="40" as="geometry" />
        </mxCell>
        <mxCell id="1IiO7rAWY404VuCAk3OG-96" value="1&amp;nbsp; &amp;nbsp; &amp;nbsp; &amp;nbsp; &amp;nbsp; &amp;nbsp; &amp;nbsp; &amp;nbsp; &amp;nbsp; Tung&amp;nbsp; &amp;nbsp; &amp;nbsp; &amp;nbsp; &amp;nbsp; &amp;nbsp; &amp;nbsp; &amp;nbsp; &amp;nbsp;PHOTO&amp;nbsp; &amp;nbsp; &amp;nbsp; &amp;nbsp; &amp;nbsp;tung@gmail.com&amp;nbsp; &amp;nbsp; &amp;nbsp; &amp;nbsp; &amp;nbsp;Coordinator" style="rounded=0;whiteSpace=wrap;html=1;align=left;" parent="1" vertex="1">
          <mxGeometry x="215" y="1880" width="510" height="60" as="geometry" />
        </mxCell>
        <mxCell id="1IiO7rAWY404VuCAk3OG-97" value="" style="html=1;whiteSpace=wrap;strokeColor=none;fillColor=#0f0f10;labelPosition=center;verticalLabelPosition=middle;verticalAlign=top;align=center;fontSize=12;outlineConnect=0;spacingTop=-6;fontColor=#FFFFFF;sketch=0;shape=mxgraph.sitemap.photo;" parent="1" vertex="1">
          <mxGeometry x="365" y="1892.5" width="45" height="35" as="geometry" />
        </mxCell>
        <mxCell id="1IiO7rAWY404VuCAk3OG-98" value="" style="shape=image;verticalLabelPosition=bottom;labelBackgroundColor=default;verticalAlign=top;aspect=fixed;imageAspect=0;image=https://static.vecteezy.com/system/resources/thumbnails/003/241/364/small/trash-bin-icon-line-vector.jpg;" parent="1" vertex="1">
          <mxGeometry x="667.5" y="1887.5" width="45" height="45" as="geometry" />
        </mxCell>
        <mxCell id="1IiO7rAWY404VuCAk3OG-99" value="" style="html=1;verticalLabelPosition=bottom;align=center;labelBackgroundColor=#ffffff;verticalAlign=top;strokeWidth=2;strokeColor=#000000;shadow=0;dashed=0;shape=mxgraph.ios7.icons.compose;" parent="1" vertex="1">
          <mxGeometry x="662.5" y="1901.25" width="14.1" height="17.5" as="geometry" />
        </mxCell>
        <mxCell id="1IiO7rAWY404VuCAk3OG-100" value="2&amp;nbsp; &amp;nbsp; &amp;nbsp; &amp;nbsp; &amp;nbsp; &amp;nbsp; &amp;nbsp; &amp;nbsp; &amp;nbsp; Hung&amp;nbsp; &amp;nbsp; &amp;nbsp; &amp;nbsp; &amp;nbsp; &amp;nbsp; &amp;nbsp; &amp;nbsp; PHO&lt;span style=&quot;color: rgba(0, 0, 0, 0); font-family: monospace; font-size: 0px; text-wrap: nowrap;&quot;&gt;%3CmxGraphModel%3E%3Croot%3E%3CmxCell%20id%3D%220%22%2F%3E%3CmxCell%20id%3D%221%22%20parent%3D%220%22%2F%3E%3CmxCell%20id%3D%222%22%20value%3D%22%22%20style%3D%22html%3D1%3BwhiteSpace%3Dwrap%3BstrokeColor%3Dnone%3BfillColor%3D%230f0f10%3BlabelPosition%3Dcenter%3BverticalLabelPosition%3Dmiddle%3BverticalAlign%3Dtop%3Balign%3Dcenter%3BfontSize%3D12%3BoutlineConnect%3D0%3BspacingTop%3D-6%3BfontColor%3D%23FFFFFF%3Bsketch%3D0%3Bshape%3Dmxgraph.sitemap.photo%3B%22%20vertex%3D%221%22%20parent%3D%221%22%3E%3CmxGeometry%20x%3D%22652.5%22%20y%3D%222182.5%22%20width%3D%2245%22%20height%3D%2235%22%20as%3D%22geometry%22%2F%3E%3C%2FmxCell%3E%3C%2Froot%3E%3C%2FmxGraphModel%3E&lt;/span&gt;TO&amp;nbsp; &amp;nbsp; &amp;nbsp; &amp;nbsp; hung@gmail.com&amp;nbsp; &amp;nbsp; &amp;nbsp; &amp;nbsp; &amp;nbsp; &amp;nbsp;Student" style="rounded=0;whiteSpace=wrap;html=1;align=left;" parent="1" vertex="1">
          <mxGeometry x="215" y="1940" width="510" height="60" as="geometry" />
        </mxCell>
        <mxCell id="1IiO7rAWY404VuCAk3OG-101" value="" style="html=1;whiteSpace=wrap;strokeColor=none;fillColor=#0f0f10;labelPosition=center;verticalLabelPosition=middle;verticalAlign=top;align=center;fontSize=12;outlineConnect=0;spacingTop=-6;fontColor=#FFFFFF;sketch=0;shape=mxgraph.sitemap.photo;" parent="1" vertex="1">
          <mxGeometry x="365" y="1952.5" width="45" height="35" as="geometry" />
        </mxCell>
        <mxCell id="1IiO7rAWY404VuCAk3OG-102" value="" style="shape=image;verticalLabelPosition=bottom;labelBackgroundColor=default;verticalAlign=top;aspect=fixed;imageAspect=0;image=https://static.vecteezy.com/system/resources/thumbnails/003/241/364/small/trash-bin-icon-line-vector.jpg;" parent="1" vertex="1">
          <mxGeometry x="667.5" y="1947.5" width="45" height="45" as="geometry" />
        </mxCell>
        <mxCell id="1IiO7rAWY404VuCAk3OG-103" value="" style="html=1;verticalLabelPosition=bottom;align=center;labelBackgroundColor=#ffffff;verticalAlign=top;strokeWidth=2;strokeColor=#000000;shadow=0;dashed=0;shape=mxgraph.ios7.icons.compose;" parent="1" vertex="1">
          <mxGeometry x="662.5" y="1961.25" width="14.1" height="17.5" as="geometry" />
        </mxCell>
        <mxCell id="1IiO7rAWY404VuCAk3OG-104" value="3&amp;nbsp; &amp;nbsp; &amp;nbsp; &amp;nbsp; &amp;nbsp; &amp;nbsp; &amp;nbsp; &amp;nbsp; &amp;nbsp; Tam&amp;nbsp; &amp;nbsp; &amp;nbsp; &amp;nbsp; &amp;nbsp; &amp;nbsp; &amp;nbsp; &amp;nbsp; &amp;nbsp; PHO&lt;span style=&quot;color: rgba(0, 0, 0, 0); font-family: monospace; font-size: 0px; text-wrap: nowrap;&quot;&gt;%3CmxGraphModel%3E%3Croot%3E%3CmxCell%20id%3D%220%22%2F%3E%3CmxCell%20id%3D%221%22%20parent%3D%220%22%2F%3E%3CmxCell%20id%3D%222%22%20value%3D%22%22%20style%3D%22html%3D1%3BwhiteSpace%3Dwrap%3BstrokeColor%3Dnone%3BfillColor%3D%230f0f10%3BlabelPosition%3Dcenter%3BverticalLabelPosition%3Dmiddle%3BverticalAlign%3Dtop%3Balign%3Dcenter%3BfontSize%3D12%3BoutlineConnect%3D0%3BspacingTop%3D-6%3BfontColor%3D%23FFFFFF%3Bsketch%3D0%3Bshape%3Dmxgraph.sitemap.photo%3B%22%20vertex%3D%221%22%20parent%3D%221%22%3E%3CmxGeometry%20x%3D%22652.5%22%20y%3D%222182.5%22%20width%3D%2245%22%20height%3D%2235%22%20as%3D%22geometry%22%2F%3E%3C%2FmxCell%3E%3C%2Froot%3E%3C%2FmxGraphModel%3E&lt;/span&gt;TO&amp;nbsp; &amp;nbsp; &amp;nbsp; &amp;nbsp; tam@gmail.com&amp;nbsp; &amp;nbsp; &amp;nbsp; &amp;nbsp; &amp;nbsp; &amp;nbsp; Manager" style="rounded=0;whiteSpace=wrap;html=1;align=left;" parent="1" vertex="1">
          <mxGeometry x="215" y="2000" width="510" height="60" as="geometry" />
        </mxCell>
        <mxCell id="1IiO7rAWY404VuCAk3OG-105" value="" style="html=1;whiteSpace=wrap;strokeColor=none;fillColor=#0f0f10;labelPosition=center;verticalLabelPosition=middle;verticalAlign=top;align=center;fontSize=12;outlineConnect=0;spacingTop=-6;fontColor=#FFFFFF;sketch=0;shape=mxgraph.sitemap.photo;" parent="1" vertex="1">
          <mxGeometry x="365" y="2012.5" width="45" height="35" as="geometry" />
        </mxCell>
        <mxCell id="1IiO7rAWY404VuCAk3OG-106" value="" style="shape=image;verticalLabelPosition=bottom;labelBackgroundColor=default;verticalAlign=top;aspect=fixed;imageAspect=0;image=https://static.vecteezy.com/system/resources/thumbnails/003/241/364/small/trash-bin-icon-line-vector.jpg;" parent="1" vertex="1">
          <mxGeometry x="667.5" y="2007.5" width="45" height="45" as="geometry" />
        </mxCell>
        <mxCell id="1IiO7rAWY404VuCAk3OG-107" value="" style="html=1;verticalLabelPosition=bottom;align=center;labelBackgroundColor=#ffffff;verticalAlign=top;strokeWidth=2;strokeColor=#000000;shadow=0;dashed=0;shape=mxgraph.ios7.icons.compose;" parent="1" vertex="1">
          <mxGeometry x="662.5" y="2021.25" width="14.1" height="17.5" as="geometry" />
        </mxCell>
        <mxCell id="e7rrqpygg92eihcxMQYW-68" value="&lt;span style=&quot;color: rgba(0, 0, 0, 0); font-family: monospace; font-size: 0px; text-align: start; text-wrap: nowrap;&quot;&gt;%3CmxGraphModel%3E%3Croot%3E%3CmxCell%20id%3D%220%22%2F%3E%3CmxCell%20id%3D%221%22%20parent%3D%220%22%2F%3E%3CmxCell%20id%3D%222%22%20value%3D%22Role%22%20style%3D%22text%3Bhtml%3D1%3Balign%3Dcenter%3BverticalAlign%3Dmiddle%3BwhiteSpace%3Dwrap%3Brounded%3D0%3B%22%20vertex%3D%221%22%20parent%3D%221%22%3E%3CmxGeometry%20x%3D%221315%22%20y%3D%22418.75%22%20width%3D%2250%22%20height%3D%2222.5%22%20as%3D%22geometry%22%2F%3E%3C%2FmxCell%3E%3C%2Froot%3E%3C%2FmxGraphModel%3E&lt;/span&gt;" style="whiteSpace=wrap;html=1;aspect=fixed;strokeColor=#000000;fillColor=#f5f5ff;" parent="1" vertex="1">
          <mxGeometry x="860" y="40" width="710" height="710" as="geometry" />
        </mxCell>
        <mxCell id="e7rrqpygg92eihcxMQYW-69" value="" style="rounded=0;whiteSpace=wrap;html=1;" parent="1" vertex="1">
          <mxGeometry x="860" y="40" width="710" height="70" as="geometry" />
        </mxCell>
        <mxCell id="e7rrqpygg92eihcxMQYW-70" value="" style="rounded=0;whiteSpace=wrap;html=1;" parent="1" vertex="1">
          <mxGeometry x="860" y="110" width="160" height="640" as="geometry" />
        </mxCell>
        <mxCell id="e7rrqpygg92eihcxMQYW-71" value="" style="rounded=0;whiteSpace=wrap;html=1;" parent="1" vertex="1">
          <mxGeometry x="860" y="110" width="160" height="60" as="geometry" />
        </mxCell>
        <mxCell id="e7rrqpygg92eihcxMQYW-72" value="" style="shape=actor;whiteSpace=wrap;html=1;" parent="1" vertex="1">
          <mxGeometry x="1515" y="70" width="20" height="15" as="geometry" />
        </mxCell>
        <mxCell id="e7rrqpygg92eihcxMQYW-73" value="" style="html=1;verticalLabelPosition=bottom;align=center;labelBackgroundColor=#ffffff;verticalAlign=top;strokeWidth=2;strokeColor=#000000;shadow=0;dashed=0;shape=mxgraph.ios7.icons.bell;" parent="1" vertex="1">
          <mxGeometry x="1450" y="72.5" width="20" height="10" as="geometry" />
        </mxCell>
        <mxCell id="e7rrqpygg92eihcxMQYW-74" value="" style="sketch=0;pointerEvents=1;shadow=0;dashed=0;html=1;strokeColor=none;fillColor=#505050;labelPosition=center;verticalLabelPosition=bottom;verticalAlign=top;outlineConnect=0;align=center;shape=mxgraph.office.concepts.home;" parent="1" vertex="1">
          <mxGeometry x="1030" y="160" width="20" height="20" as="geometry" />
        </mxCell>
        <mxCell id="e7rrqpygg92eihcxMQYW-75" value="&lt;b&gt;List Accounts&lt;/b&gt;" style="text;html=1;align=center;verticalAlign=middle;whiteSpace=wrap;rounded=0;" parent="1" vertex="1">
          <mxGeometry x="1030" y="125" width="85" height="30" as="geometry" />
        </mxCell>
        <mxCell id="e7rrqpygg92eihcxMQYW-76" value="&lt;span style=&quot;font-size: 11px;&quot;&gt;&lt;b&gt;Add an account&lt;/b&gt;&lt;/span&gt;" style="text;html=1;align=center;verticalAlign=middle;whiteSpace=wrap;rounded=0;" parent="1" vertex="1">
          <mxGeometry x="1060" y="155" width="95" height="30" as="geometry" />
        </mxCell>
        <mxCell id="e7rrqpygg92eihcxMQYW-77" value="" style="sketch=0;pointerEvents=1;shadow=0;dashed=0;html=1;strokeColor=none;fillColor=#505050;labelPosition=center;verticalLabelPosition=bottom;verticalAlign=top;outlineConnect=0;align=center;shape=mxgraph.office.concepts.home;" parent="1" vertex="1">
          <mxGeometry x="870" y="125" width="30" height="30" as="geometry" />
        </mxCell>
        <mxCell id="e7rrqpygg92eihcxMQYW-78" value="Admin Page" style="text;html=1;align=center;verticalAlign=middle;whiteSpace=wrap;rounded=0;" parent="1" vertex="1">
          <mxGeometry x="900" y="125" width="90" height="30" as="geometry" />
        </mxCell>
        <mxCell id="e7rrqpygg92eihcxMQYW-79" value="" style="shape=image;verticalLabelPosition=bottom;labelBackgroundColor=default;verticalAlign=top;aspect=fixed;imageAspect=0;image=https://images.rawpixel.com/image_png_social_square/czNmcy1wcml2YXRlL3Jhd3BpeGVsX2ltYWdlcy93ZWJzaXRlX2NvbnRlbnQvbHIvdjk5My00MC5wbmc.png;" parent="1" vertex="1">
          <mxGeometry x="867.5" y="220" width="20" height="20" as="geometry" />
        </mxCell>
        <mxCell id="e7rrqpygg92eihcxMQYW-80" value="Dash board" style="text;html=1;align=center;verticalAlign=middle;whiteSpace=wrap;rounded=0;" parent="1" vertex="1">
          <mxGeometry x="890" y="215" width="90" height="30" as="geometry" />
        </mxCell>
        <mxCell id="e7rrqpygg92eihcxMQYW-81" value="" style="shape=internalStorage;whiteSpace=wrap;html=1;backgroundOutline=1;dx=10;dy=20;" parent="1" vertex="1">
          <mxGeometry x="865" y="260" width="25" height="20" as="geometry" />
        </mxCell>
        <mxCell id="e7rrqpygg92eihcxMQYW-82" value="System management" style="text;html=1;align=center;verticalAlign=middle;whiteSpace=wrap;rounded=0;" parent="1" vertex="1">
          <mxGeometry x="875" y="257.5" width="150" height="25" as="geometry" />
        </mxCell>
        <mxCell id="e7rrqpygg92eihcxMQYW-83" value="&lt;i&gt;Navigation&lt;/i&gt;" style="text;html=1;align=center;verticalAlign=middle;whiteSpace=wrap;rounded=0;" parent="1" vertex="1">
          <mxGeometry x="875" y="180" width="60" height="30" as="geometry" />
        </mxCell>
        <mxCell id="e7rrqpygg92eihcxMQYW-84" value="Admin account management" style="text;html=1;align=center;verticalAlign=middle;whiteSpace=wrap;rounded=0;" parent="1" vertex="1">
          <mxGeometry x="875" y="60" width="160" height="30" as="geometry" />
        </mxCell>
        <mxCell id="e7rrqpygg92eihcxMQYW-85" value="" style="triangle;whiteSpace=wrap;html=1;" parent="1" vertex="1">
          <mxGeometry x="882.5" y="310" width="10" height="10" as="geometry" />
        </mxCell>
        <mxCell id="e7rrqpygg92eihcxMQYW-86" value="Account" style="text;html=1;align=left;verticalAlign=middle;whiteSpace=wrap;rounded=0;" parent="1" vertex="1">
          <mxGeometry x="900" y="300" width="60" height="30" as="geometry" />
        </mxCell>
        <mxCell id="e7rrqpygg92eihcxMQYW-87" value="" style="triangle;whiteSpace=wrap;html=1;" parent="1" vertex="1">
          <mxGeometry x="882.5" y="345" width="10" height="10" as="geometry" />
        </mxCell>
        <mxCell id="e7rrqpygg92eihcxMQYW-88" value="Event" style="text;html=1;align=left;verticalAlign=middle;whiteSpace=wrap;rounded=0;" parent="1" vertex="1">
          <mxGeometry x="900" y="335" width="60" height="30" as="geometry" />
        </mxCell>
        <mxCell id="e7rrqpygg92eihcxMQYW-89" value="Add a User" style="swimlane;whiteSpace=wrap;html=1;align=left;startSize=70;" parent="1" vertex="1">
          <mxGeometry x="1037.5" y="210" width="510" height="490" as="geometry">
            <mxRectangle x="502.5" y="2060" width="130" height="70" as="alternateBounds" />
          </mxGeometry>
        </mxCell>
        <mxCell id="e7rrqpygg92eihcxMQYW-109" value="" style="rounded=0;whiteSpace=wrap;html=1;" parent="e7rrqpygg92eihcxMQYW-89" vertex="1">
          <mxGeometry x="22.5" y="207.5" width="200" height="25" as="geometry" />
        </mxCell>
        <mxCell id="e7rrqpygg92eihcxMQYW-110" value="Password" style="text;html=1;align=left;verticalAlign=middle;whiteSpace=wrap;rounded=0;" parent="e7rrqpygg92eihcxMQYW-89" vertex="1">
          <mxGeometry x="22.5" y="177.5" width="60" height="30" as="geometry" />
        </mxCell>
        <mxCell id="e7rrqpygg92eihcxMQYW-105" value="" style="rounded=0;whiteSpace=wrap;html=1;" parent="1" vertex="1">
          <mxGeometry x="1060" y="335" width="200" height="25" as="geometry" />
        </mxCell>
        <mxCell id="e7rrqpygg92eihcxMQYW-106" value="Name" style="text;html=1;align=left;verticalAlign=middle;whiteSpace=wrap;rounded=0;" parent="1" vertex="1">
          <mxGeometry x="1060" y="305" width="60" height="30" as="geometry" />
        </mxCell>
        <mxCell id="e7rrqpygg92eihcxMQYW-107" value="" style="rounded=0;whiteSpace=wrap;html=1;" parent="1" vertex="1">
          <mxGeometry x="1315" y="335" width="200" height="25" as="geometry" />
        </mxCell>
        <mxCell id="e7rrqpygg92eihcxMQYW-108" value="Email address" style="text;html=1;align=left;verticalAlign=middle;whiteSpace=wrap;rounded=0;" parent="1" vertex="1">
          <mxGeometry x="1315" y="305" width="95" height="30" as="geometry" />
        </mxCell>
        <mxCell id="e7rrqpygg92eihcxMQYW-111" value="" style="rounded=0;whiteSpace=wrap;html=1;" parent="1" vertex="1">
          <mxGeometry x="1315" y="417.5" width="200" height="25" as="geometry" />
        </mxCell>
        <mxCell id="e7rrqpygg92eihcxMQYW-112" value="Select a Role" style="text;html=1;align=left;verticalAlign=middle;whiteSpace=wrap;rounded=0;" parent="1" vertex="1">
          <mxGeometry x="1315" y="387.5" width="95" height="30" as="geometry" />
        </mxCell>
        <mxCell id="e7rrqpygg92eihcxMQYW-113" value="" style="endArrow=none;html=1;rounded=0;exitX=0.25;exitY=1;exitDx=0;exitDy=0;entryX=0.25;entryY=0;entryDx=0;entryDy=0;" parent="1" source="e7rrqpygg92eihcxMQYW-111" target="e7rrqpygg92eihcxMQYW-111" edge="1">
          <mxGeometry width="50" height="50" relative="1" as="geometry">
            <mxPoint x="1130" y="400" as="sourcePoint" />
            <mxPoint x="1365" y="410" as="targetPoint" />
          </mxGeometry>
        </mxCell>
        <mxCell id="e7rrqpygg92eihcxMQYW-114" value="Role" style="text;html=1;align=center;verticalAlign=middle;whiteSpace=wrap;rounded=0;" parent="1" vertex="1">
          <mxGeometry x="1315" y="418.75" width="50" height="22.5" as="geometry" />
        </mxCell>
        <mxCell id="e7rrqpygg92eihcxMQYW-115" value="" style="shape=image;html=1;verticalAlign=top;verticalLabelPosition=bottom;labelBackgroundColor=#ffffff;imageAspect=0;aspect=fixed;image=https://cdn4.iconfinder.com/data/icons/ionicons/512/icon-arrow-down-b-128.png" parent="1" vertex="1">
          <mxGeometry x="1500" y="430" width="8" height="8" as="geometry" />
        </mxCell>
        <mxCell id="e7rrqpygg92eihcxMQYW-116" value="" style="shape=image;html=1;verticalAlign=top;verticalLabelPosition=bottom;labelBackgroundColor=#ffffff;imageAspect=0;aspect=fixed;image=https://cdn4.iconfinder.com/data/icons/ionicons/512/icon-arrow-down-b-128.png;direction=west;" parent="1" vertex="1">
          <mxGeometry x="1500" y="422" width="8" height="8" as="geometry" />
        </mxCell>
        <mxCell id="e7rrqpygg92eihcxMQYW-119" value="Choose file" style="rounded=0;whiteSpace=wrap;html=1;align=left;" parent="1" vertex="1">
          <mxGeometry x="1060" y="500" width="200" height="25" as="geometry" />
        </mxCell>
        <mxCell id="e7rrqpygg92eihcxMQYW-120" value="Photo" style="text;html=1;align=left;verticalAlign=middle;whiteSpace=wrap;rounded=0;" parent="1" vertex="1">
          <mxGeometry x="1060" y="470" width="60" height="30" as="geometry" />
        </mxCell>
        <mxCell id="e7rrqpygg92eihcxMQYW-121" value="" style="endArrow=none;html=1;rounded=0;exitX=0.75;exitY=1;exitDx=0;exitDy=0;entryX=0.75;entryY=0;entryDx=0;entryDy=0;" parent="1" source="e7rrqpygg92eihcxMQYW-119" target="e7rrqpygg92eihcxMQYW-119" edge="1">
          <mxGeometry width="50" height="50" relative="1" as="geometry">
            <mxPoint x="1230" y="450" as="sourcePoint" />
            <mxPoint x="1280" y="400" as="targetPoint" />
          </mxGeometry>
        </mxCell>
        <mxCell id="e7rrqpygg92eihcxMQYW-122" value="Browse" style="text;html=1;align=center;verticalAlign=middle;whiteSpace=wrap;rounded=0;" parent="1" vertex="1">
          <mxGeometry x="1210" y="502.5" width="50" height="20" as="geometry" />
        </mxCell>
        <mxCell id="e7rrqpygg92eihcxMQYW-123" value="Submit" style="html=1;shadow=0;dashed=0;shape=mxgraph.bootstrap.rrect;rSize=5;strokeColor=none;strokeWidth=1;fillColor=#33A64C;fontColor=#FFFFFF;whiteSpace=wrap;align=center;verticalAlign=middle;spacingLeft=0;fontStyle=0;fontSize=16;spacing=5;" parent="1" vertex="1">
          <mxGeometry x="1060" y="570" width="60" height="30" as="geometry" />
        </mxCell>
      </root>
    </mxGraphModel>
  </diagram>
</mxfile>
